<svg width="25" height="25" viewBox="0 0 25 25" fill="none" xmlns="http://www.w3.org/2000/svg">
<path d="M6.8 22C6.3 22 5.875 21.825 5.525 21.475C5.175 21.125 5 20.7 5 20.2V8.8C5 8.3 5.175 7.875 5.525 7.525C5.875 7.175 6.3 7 6.8 7H8.75V6.75C8.75 5.71667 9.11667 4.83333 9.85 4.1C10.5833 3.36667 11.4667 3 12.5 3C13.5333 3 14.4167 3.36667 15.15 4.1C15.8833 4.83333 16.25 5.71667 16.25 6.75V7H18.2C18.7 7 19.125 7.175 19.475 7.525C19.825 7.875 20 8.3 20 8.8V20.2C20 20.7 19.825 21.125 19.475 21.475C19.125 21.825 18.7 22 18.2 22H6.8ZM6.8 20.5H18.2C18.2667 20.5 18.3333 20.4667 18.4 20.4C18.4667 20.3333 18.5 20.2667 18.5 20.2V8.8C18.5 8.73333 18.4667 8.66667 18.4 8.6C18.3333 8.53333 18.2667 8.5 18.2 8.5H16.25V10.75C16.25 10.9667 16.1793 11.1457 16.038 11.287C15.896 11.429 15.7167 11.5 15.5 11.5C15.2833 11.5 15.1043 11.429 14.963 11.287C14.821 11.1457 14.75 10.9667 14.75 10.75V8.5H10.25V10.75C10.25 10.9667 10.1793 11.1457 10.038 11.287C9.896 11.429 9.71667 11.5 9.5 11.5C9.28333 11.5 9.10433 11.429 8.963 11.287C8.821 11.1457 8.75 10.9667 8.75 10.75V8.5H6.8C6.73333 8.5 6.66667 8.53333 6.6 8.6C6.53333 8.66667 6.5 8.73333 6.5 8.8V20.2C6.5 20.2667 6.53333 20.3333 6.6 20.4C6.66667 20.4667 6.73333 20.5 6.8 20.5ZM10.25 7H14.75V6.75C14.75 6.11667 14.5333 5.58333 14.1 5.15C13.6667 4.71667 13.1333 4.5 12.5 4.5C11.8667 4.5 11.3333 4.71667 10.9 5.15C10.4667 5.58333 10.25 6.11667 10.25 6.75V7ZM6.5 20.5V8.5V20.5Z" fill="#121212"/>
</svg>
