<svg width="24" height="24" viewBox="0 0 24 24" fill="none" xmlns="http://www.w3.org/2000/svg">
<path d="M8.01741 22C7.50265 22 7.0635 21.8231 6.69997 21.4694C6.33573 21.115 6.15361 20.6874 6.15361 20.1865C6.15361 19.6857 6.33573 19.258 6.69997 18.9036C7.0635 18.5499 7.50265 18.3731 8.01741 18.3731C8.53218 18.3731 8.97132 18.5499 9.33485 18.9036C9.69909 19.258 9.88121 19.6857 9.88121 20.1865C9.88121 20.6874 9.69909 21.115 9.33485 21.4694C8.97132 21.8231 8.53218 22 8.01741 22ZM18.3482 22C17.8334 22 17.3943 21.8231 17.0308 21.4694C16.6665 21.115 16.4844 20.6874 16.4844 20.1865C16.4844 19.6857 16.6665 19.258 17.0308 18.9036C17.3943 18.5499 17.8334 18.3731 18.3482 18.3731C18.863 18.3731 19.3021 18.5499 19.6656 18.9036C20.0299 19.258 20.212 19.6857 20.212 20.1865C20.212 20.6874 20.0299 21.115 19.6656 21.4694C19.3021 21.8231 18.863 22 18.3482 22ZM6.81926 5.62694L9.50845 11.1192H16.7773C16.8305 11.1192 16.8838 11.106 16.937 11.0798C16.9903 11.0542 17.0258 11.0155 17.0435 10.9637L19.9191 5.91192C19.9546 5.84283 19.9546 5.77824 19.9191 5.71813C19.8836 5.65734 19.8304 5.62694 19.7594 5.62694H6.81926ZM6.04711 4.07254H20.8244C21.2681 4.07254 21.6011 4.25389 21.8234 4.61658C22.0449 4.97927 22.058 5.3506 21.8628 5.73057L18.4281 11.7409C18.2683 12.0345 18.0422 12.2632 17.7496 12.4269C17.4564 12.5914 17.1412 12.6736 16.8039 12.6736H9.02919L7.80441 14.8756C7.75116 14.962 7.7469 15.0484 7.79163 15.1347C7.83565 15.2211 7.91091 15.2642 8.01741 15.2642H20.212V16.8187H8.01741C7.30739 16.8187 6.77488 16.5209 6.41987 15.9254C6.06486 15.3292 6.05598 14.7375 6.39324 14.1503L7.91091 11.4819L4.02356 3.5544H2V2H5.03533L6.04711 4.07254ZM9.50845 11.1192H16.9637H9.50845Z" fill="white"/>
</svg>
