<svg width="26" height="29" viewBox="0 0 26 29" fill="none" xmlns="http://www.w3.org/2000/svg">
<path d="M8.21792 20.9486L13 16.0993L17.8237 20.9486L19.3012 19.4454L14.5192 14.5961L19.3012 9.73072L17.8237 8.22755L13 13.0769L8.21792 8.22755L6.69871 9.73072L11.5224 14.5961L6.69871 19.4454L8.21792 20.9486ZM4.59617 28.1666C3.94258 28.1666 3.37854 27.9293 2.90404 27.4548C2.42957 26.9803 2.19233 26.4163 2.19233 25.7627V3.08651H0.5V1.19551H7.62817V0.0256348H18.3717V1.19551H25.4999V3.08651H23.8076V25.7627C23.8076 26.4163 23.5703 26.9803 23.0959 27.4548C22.6214 27.9293 22.0573 28.1666 21.4037 28.1666H4.59617ZM21.9166 3.08651H4.08329V25.7627C4.08329 25.8909 4.13672 26.0084 4.24358 26.1153C4.35042 26.2221 4.46794 26.2756 4.59617 26.2756H21.4037C21.532 26.2756 21.6495 26.2221 21.7563 26.1153C21.8632 26.0084 21.9166 25.8909 21.9166 25.7627V3.08651Z" fill="#F55F56"/>
</svg>
