<svg width="24" height="24" viewBox="0 0 24 24" fill="none" xmlns="http://www.w3.org/2000/svg">
<g id="delete_forever_FILL0_wght300_GRAD0_opsz48 1">
<path id="Vector" d="M9.13075 16.169L12 13.2594L14.8942 16.169L15.7807 15.2671L12.9115 12.3575L15.7807 9.43828L14.8942 8.53639L12 11.446L9.13075 8.53639L8.21922 9.43828L11.1135 12.3575L8.21922 15.2671L9.13075 16.169ZM6.9577 20.4998C6.56555 20.4998 6.22712 20.3574 5.94242 20.0727C5.65774 19.788 5.5154 19.4496 5.5154 19.0575V5.45176H4.5V4.31716H8.7769V3.61523H15.223V4.31716H19.5V5.45176H18.4845V19.0575C18.4845 19.4496 18.3422 19.788 18.0575 20.0727C17.7728 20.3574 17.4344 20.4998 17.0422 20.4998H6.9577ZM17.35 5.45176H6.64997V19.0575C6.64997 19.1344 6.68203 19.2049 6.74615 19.269C6.81025 19.3331 6.88077 19.3652 6.9577 19.3652H17.0422C17.1192 19.3652 17.1897 19.3331 17.2538 19.269C17.3179 19.2049 17.35 19.1344 17.35 19.0575V5.45176Z" fill="#F55F56"/>
</g>
</svg>
