<svg width="2255" height="2255" viewBox="0 0 2255 2255" fill="none" xmlns="http://www.w3.org/2000/svg">
<rect width="2255" height="2255" fill="#D9D9D9"/>
<g clip-path="url(#clip0_2496_8221)">
<path d="M1614.82 632.883C1608.3 626.366 1597.77 626.366 1591.25 632.883L1529.45 694.67H1141.39L653.535 1186.54C642.418 1197.64 636.301 1212.43 636.301 1228.13C636.301 1243.83 642.418 1258.61 653.535 1269.72L994.652 1610.83C1006.1 1622.28 1021.12 1628 1036.17 1628C1051.27 1628 1066.41 1622.23 1077.97 1610.67L1553.01 1122.79V718.238L1614.8 656.451C1621.32 649.934 1621.32 639.4 1614.82 632.883ZM1018.22 1587.26L677.103 1246.15C672.286 1241.33 669.636 1234.93 669.636 1228.13C669.636 1221.33 672.286 1214.93 677.153 1210.06L824.66 1061.34L1200.43 1437.12L1054.24 1587.26C1044.32 1597.18 1028.15 1597.18 1018.22 1587.26ZM1519.69 1109.26L1223.7 1413.24L848.145 1037.67L1155.28 728.005H1496.13L1415.57 808.559C1402.39 799.825 1386.64 794.675 1369.69 794.675C1323.74 794.675 1286.35 832.06 1286.35 878.012C1286.35 923.965 1323.74 961.35 1369.69 961.35C1415.64 961.35 1453.02 923.965 1453.02 878.012C1453.02 861.061 1447.87 845.311 1439.14 832.127L1519.69 751.573V1109.26ZM1419.69 878.012C1419.69 905.58 1397.26 928.015 1369.69 928.015C1342.12 928.015 1319.68 905.58 1319.68 878.012C1319.68 850.444 1342.12 828.01 1369.69 828.01C1377.39 828.01 1384.59 829.91 1391.11 833.027L1357.9 866.228C1351.39 872.745 1351.39 883.279 1357.9 889.796C1361.15 893.046 1365.42 894.68 1369.69 894.68C1373.95 894.68 1378.22 893.046 1381.47 889.796L1414.67 856.595C1417.79 863.112 1419.69 870.312 1419.69 878.012Z" fill="#C4C4C4"/>
</g>
<defs>
<clipPath id="clip0_2496_8221">
<rect width="1000" height="1000" fill="white" transform="translate(628 628)"/>
</clipPath>
</defs>
</svg>
