<svg width="33" height="33" viewBox="0 0 33 33" fill="none" xmlns="http://www.w3.org/2000/svg">
<path d="M3.33398 32.6666C2.50065 32.6666 1.79232 32.3749 1.20898 31.7916C0.625651 31.2083 0.333984 30.4999 0.333984 29.6666V7.33325C0.333984 6.49992 0.625651 5.79158 1.20898 5.20825C1.79232 4.62492 2.50065 4.33325 3.33398 4.33325H17.584L15.084 6.83325H3.33398C3.22287 6.83325 3.11176 6.88881 3.00065 6.99992C2.88954 7.11103 2.83398 7.22214 2.83398 7.33325V29.6666C2.83398 29.7777 2.88954 29.8888 3.00065 29.9999C3.11176 30.111 3.22287 30.1666 3.33398 30.1666H25.6673C25.7784 30.1666 25.8895 30.111 26.0006 29.9999C26.1118 29.8888 26.1673 29.7777 26.1673 29.6666V17.8749L28.6673 15.3749V29.6666C28.6673 30.4999 28.3757 31.2083 27.7923 31.7916C27.209 32.3749 26.5007 32.6666 25.6673 32.6666H3.33398ZM22.0423 5.04159L23.834 6.79159L12.834 17.7916V20.1666H15.1673L26.2506 9.12492L28.0006 10.8749L16.2506 22.6666H10.334V16.7499L22.0423 5.04159ZM28.0006 10.8749L22.0423 5.04159L25.8757 1.20825C26.459 0.624918 27.1745 0.333252 28.0223 0.333252C28.869 0.333252 29.584 0.638807 30.1673 1.24992L31.7923 2.87492C32.3479 3.45825 32.6256 4.16659 32.6256 4.99992C32.6256 5.83325 32.334 6.54158 31.7506 7.12492L28.0006 10.8749Z" fill="#808080"/>
</svg>
