<svg width="28" height="28" viewBox="0 0 28 28" fill="none" xmlns="http://www.w3.org/2000/svg">
<g clip-path="url(#clip0_2680_13364)">
<path fill-rule="evenodd" clip-rule="evenodd" d="M13.9938 0.699219C10.6909 0.700932 7.49636 1.87074 4.98132 3.99947C2.46629 6.1282 0.794778 9.07704 0.265676 12.3187C-0.263425 15.5604 0.384378 18.8835 2.09326 21.6938C3.80215 24.5041 6.46068 26.6184 9.59347 27.6587C10.2846 27.7869 10.545 27.3586 10.545 26.9943C10.545 26.6301 10.5311 25.5741 10.5265 24.4196C6.6561 25.2557 5.83825 22.7863 5.83825 22.7863C5.207 21.1828 4.29469 20.7613 4.29469 20.7613C3.0322 19.9046 4.38915 19.9206 4.38915 19.9206C5.78757 20.0191 6.52249 21.3477 6.52249 21.3477C7.76195 23.4621 9.77778 22.8504 10.5703 22.4931C10.6947 21.5974 11.0564 20.9881 11.455 20.6422C8.36324 20.294 5.11485 19.1074 5.11485 13.8067C5.09569 12.432 5.60873 11.1026 6.54783 10.0934C6.40499 9.74526 5.9281 8.33876 6.68375 6.4283C6.68375 6.4283 7.8518 6.05721 10.5104 7.84625C12.7908 7.22619 15.1968 7.22619 17.4771 7.84625C20.1335 6.05721 21.2992 6.4283 21.2992 6.4283C22.0571 8.33418 21.5803 9.74067 21.4374 10.0934C22.3795 11.1027 22.8936 12.4345 22.8727 13.8113C22.8727 19.1234 19.6174 20.294 16.5211 20.6353C17.0187 21.066 17.4633 21.9067 17.4633 23.1986C17.4633 25.0495 17.4472 26.5385 17.4472 26.9943C17.4472 27.3631 17.6983 27.7938 18.4033 27.6587C21.5364 26.6183 24.1952 24.5036 25.9041 21.6928C27.6129 18.882 28.2604 15.5584 27.7307 12.3164C27.201 9.07448 25.5287 6.12561 23.0128 3.99725C20.4969 1.86888 17.3016 0.699846 13.9984 0.699219H13.9938Z" fill="#191717"/>
<path d="M5.3513 20.5634C5.32135 20.6321 5.21077 20.6527 5.12092 20.6046C5.03107 20.5565 4.96427 20.4672 4.99652 20.3962C5.02877 20.3252 5.13705 20.3068 5.2269 20.3549C5.31675 20.403 5.38586 20.4947 5.3513 20.5634Z" fill="#191717"/>
<path d="M5.91369 21.1888C5.86598 21.2127 5.8114 21.2194 5.75928 21.2077C5.70717 21.196 5.66077 21.1666 5.62802 21.1247C5.53817 21.0284 5.51973 20.8956 5.58884 20.836C5.65796 20.7765 5.78238 20.804 5.87222 20.9002C5.96207 20.9964 5.98281 21.1292 5.91369 21.1888Z" fill="#191717"/>
<path d="M6.46356 21.9831C6.37832 22.0427 6.23317 21.9831 6.15254 21.864C6.13024 21.8426 6.11251 21.817 6.1004 21.7887C6.08828 21.7603 6.08203 21.7299 6.08203 21.6991C6.08203 21.6683 6.08828 21.6378 6.1004 21.6095C6.11251 21.5811 6.13024 21.5555 6.15254 21.5341C6.23778 21.4769 6.38293 21.5341 6.46356 21.651C6.54419 21.7678 6.5465 21.9236 6.46356 21.9831Z" fill="#191717"/>
<path d="M7.20563 22.7517C7.12961 22.8365 6.97525 22.8136 6.84854 22.6991C6.72183 22.5845 6.69187 22.4287 6.7679 22.3463C6.84393 22.2638 6.99828 22.2867 7.1296 22.399C7.26092 22.5112 7.28627 22.6693 7.20563 22.7517Z" fill="#191717"/>
<path d="M8.25138 23.2021C8.21683 23.3097 8.06016 23.3579 7.9035 23.312C7.74685 23.2662 7.64317 23.1379 7.67312 23.028C7.70307 22.918 7.86204 22.8676 8.021 22.918C8.17996 22.9684 8.28133 23.0898 8.25138 23.2021Z" fill="#191717"/>
<path d="M9.38965 23.2798C9.38965 23.392 9.26064 23.4882 9.09477 23.4905C8.92889 23.4928 8.79297 23.4012 8.79297 23.2889C8.79297 23.1767 8.92198 23.0805 9.08785 23.0782C9.25373 23.0759 9.38965 23.1652 9.38965 23.2798Z" fill="#191717"/>
<path d="M10.446 23.1035C10.4667 23.2157 10.3515 23.3325 10.1856 23.36C10.0198 23.3875 9.87463 23.3211 9.8539 23.2111C9.83316 23.1012 9.95296 22.982 10.1142 22.9523C10.2755 22.9225 10.4252 22.9912 10.446 23.1035Z" fill="#191717"/>
</g>
<defs>
<clipPath id="clip0_2680_13364">
<rect width="28" height="28" rx="6" fill="white"/>
</clipPath>
</defs>
</svg>
