<svg xmlns="http://www.w3.org/2000/svg" width="25" height="25" viewBox="0 0 25 25" fill="none">
  <path d="M12.7558 21V19.8654H19.8076C19.8846 19.8654 19.9551 19.8333 20.0192 19.7692C20.0833 19.7051 20.1154 19.6346 20.1154 19.5576V5.44232C20.1154 5.36539 20.0833 5.29487 20.0192 5.23075C19.9551 5.16665 19.8846 5.1346 19.8076 5.1346H12.7558V4H19.8076C20.1998 4 20.5382 4.14235 20.8229 4.42705C21.1076 4.71175 21.25 5.05017 21.25 5.44232V19.5576C21.25 19.9498 21.1076 20.2882 20.8229 20.5729C20.5382 20.8576 20.1998 21 19.8076 21H12.7558ZM11.8616 16.3076L11.0366 15.5019L13.4712 13.0673H4.25V11.9327H13.4404L11.0058 9.49808L11.8212 8.6827L15.6538 12.5202L11.8616 16.3076Z" fill="black"/>
</svg>