<svg width="31" height="45" viewBox="0 0 31 45" fill="none" xmlns="http://www.w3.org/2000/svg">
<g clip-path="url(#clip0_1600_1203)">
<path d="M15 38.4453H16V44.9999H15V38.4453Z" fill="#121212"/>
<path d="M0 23.3193H7.5C11.6421 23.3193 15 26.7054 15 30.8824V38.4454H7.5C3.35786 38.4454 0 35.0593 0 30.8824V23.3193Z" fill="#121212"/>
<path d="M31 23.3193H23.5C19.3579 23.3193 16 26.7054 16 30.8824V38.4454H23.5C27.6421 38.4454 31 35.0593 31 30.8824V23.3193Z" fill="#121212"/>
<path d="M31 7.68945L16 22.8155H23.5401C27.6601 22.8155 31 19.4476 31 15.2929V7.68945Z" fill="#121212"/>
<path d="M0 7.68945L15 22.8155H7.45989C3.33991 22.8155 0 19.4476 0 15.2929V7.68945Z" fill="#121212"/>
<path d="M23.5119 8.07319C23.5119 12.5319 19.9275 16.1464 15.5059 16.1464C11.0844 16.1464 7.5 12.5319 7.5 8.07319C7.5 3.6145 11.0844 0 15.5059 0C19.9275 0 23.5119 3.6145 23.5119 8.07319Z" fill="#121212"/>
</g>
<defs>
<clipPath id="clip0_1600_1203">
<rect width="31" height="45" fill="white"/>
</clipPath>
</defs>
</svg>
