<svg xmlns="http://www.w3.org/2000/svg" width="25" height="25" viewBox="0 0 25 25" fill="none">
<path d="M5.69232 21C5.30017 21 4.96175 20.8576 4.67705 20.5729C4.39235 20.2882 4.25 19.9498 4.25 19.5576V5.44232C4.25 5.05017 4.39235 4.71175 4.67705 4.42705C4.96175 4.14235 5.30017 4 5.69232 4H12.7442V5.1346H5.69232C5.61539 5.1346 5.54487 5.16665 5.48075 5.23075C5.41665 5.29487 5.3846 5.36539 5.3846 5.44232V19.5576C5.3846 19.6346 5.41665 19.7051 5.48075 19.7692C5.54487 19.8333 5.61539 19.8654 5.69232 19.8654H12.7442V21H5.69232ZM17.4577 16.3076L16.6327 15.5019L19.0673 13.0673H9.84613V11.9327H19.0365L16.6019 9.49808L17.4173 8.6827L21.25 12.5202L17.4577 16.3076Z" fill="black"/>
</svg>
