<svg width="25" height="25" viewBox="0 0 25 25" fill="none" xmlns="http://www.w3.org/2000/svg">
<path d="M12.75 11.8017C11.4667 11.8017 10.4087 11.3639 9.57599 10.4883C8.7433 9.61273 8.32695 8.49799 8.32695 7.1441C8.32695 5.79019 8.7433 4.67769 9.57599 3.8066C10.4087 2.93553 11.4667 2.5 12.75 2.5C14.0333 2.5 15.0913 2.93553 15.924 3.8066C16.7567 4.67769 17.173 5.79019 17.173 7.1441C17.173 8.49799 16.7567 9.61273 15.924 10.4883C15.0913 11.3639 14.0333 11.8017 12.75 11.8017ZM2.75 22.5V19.8389C2.75 19.0858 2.93974 18.4298 3.31924 17.8708C3.69873 17.3118 4.19189 16.8822 4.79874 16.582C6.20214 15.9259 7.55499 15.4316 8.85729 15.0991C10.1596 14.7666 11.457 14.6003 12.7496 14.6003C14.0422 14.6003 15.3363 14.7702 16.632 15.1099C17.9278 15.4496 19.2746 15.9435 20.6724 16.5915C21.303 16.8909 21.8069 17.3187 22.1841 17.8749C22.5614 18.4312 22.75 19.0858 22.75 19.8389V22.5H2.75ZM4.2628 20.9093H21.2372V19.8389C21.2372 19.4741 21.1274 19.1245 20.9077 18.7901C20.688 18.4558 20.4013 18.1934 20.0474 18.0028C18.7363 17.3324 17.4996 16.8628 16.3373 16.5941C15.1751 16.3254 13.9793 16.191 12.75 16.191C11.5207 16.191 10.3159 16.3254 9.13572 16.5941C7.95549 16.8628 6.72094 17.3324 5.43204 18.0028C5.0782 18.1934 4.79486 18.4558 4.58204 18.7901C4.36922 19.1245 4.2628 19.4741 4.2628 19.8389V20.9093ZM12.75 10.211C13.5825 10.211 14.2756 9.91979 14.8295 9.3374C15.3833 8.75503 15.6602 8.02617 15.6602 7.15083C15.6602 6.27549 15.3833 5.54664 14.8295 4.96427C14.2756 4.3819 13.5825 4.09071 12.75 4.09071C11.9175 4.09071 11.2244 4.3819 10.6705 4.96427C10.1167 5.54664 9.83976 6.27549 9.83976 7.15083C9.83976 8.02617 10.1167 8.75503 10.6705 9.3374C11.2244 9.91979 11.9175 10.211 12.75 10.211Z" fill="black"/>
</svg>
