<svg width="24" height="25" viewBox="0 0 24 25" fill="none" xmlns="http://www.w3.org/2000/svg">
<path d="M19.9 21.4746L13.325 14.8996C12.825 15.3329 12.242 15.6704 11.576 15.9121C10.91 16.1538 10.2014 16.2746 9.45 16.2746C7.6473 16.2746 6.12163 15.6496 4.87298 14.3996C3.62433 13.1496 3 11.6413 3 9.87461C3 8.10794 3.625 6.59961 4.875 5.34961C6.125 4.09961 7.6375 3.47461 9.4125 3.47461C11.1875 3.47461 12.6958 4.09961 13.9375 5.34961C15.1792 6.59961 15.8 8.10919 15.8 9.87836C15.8 10.5925 15.6833 11.2829 15.45 11.9496C15.2167 12.6163 14.8667 13.2413 14.4 13.8246L21 20.3746L19.9 21.4746ZM9.425 14.7746C10.7792 14.7746 11.9302 14.2954 12.8781 13.3371C13.826 12.3788 14.3 11.2246 14.3 9.87461C14.3 8.52461 13.826 7.37044 12.8781 6.41211C11.9302 5.45378 10.7792 4.97461 9.425 4.97461C8.05695 4.97461 6.8941 5.45378 5.93645 6.41211C4.97882 7.37044 4.5 8.52461 4.5 9.87461C4.5 11.2246 4.97882 12.3788 5.93645 13.3371C6.8941 14.2954 8.05695 14.7746 9.425 14.7746Z" fill="#424245"/>
</svg>
