<svg width="16" height="16" viewBox="0 0 16 16" fill="none" xmlns="http://www.w3.org/2000/svg">
<path d="M2.5 5.99935C2.5 5.53911 2.8731 5.16602 3.33333 5.16602H5.66667H8H10.3333H12.6667C13.1269 5.16602 13.5 5.53911 13.5 5.99935V11.9993C13.5 12.4596 13.1269 12.8327 12.6667 12.8327H3.33333C2.87309 12.8327 2.5 12.4596 2.5 11.9993V5.99935Z" stroke="black" stroke-linecap="round" stroke-linejoin="round"/>
<path d="M10.6654 5.16667C10.9415 5.16667 11.1654 4.94281 11.1654 4.66667V3C11.1654 2.72386 10.9415 2.5 10.6654 2.5H5.33203C5.05589 2.5 4.83203 2.72386 4.83203 3V4.66667C4.83203 4.94281 5.05589 5.16667 5.33203 5.16667H7.9987H10.6654Z" stroke="black" stroke-linejoin="round"/>
</svg>
